# xmcd
#
# Track frame offsets: 
#        150
#        14711
#        32946
#        52990
#        70690
#        91814
#        115202
#        137318
#        154077
#        168732
#        190944
#        210968
#        229926
#
# Disc length: 3256 seconds
#
# Revision: 3
# Processed by: cddbd v1.5.2PL0 Copyright (c) Steve Scherf et al.
# Submitted via: ExactAudioCopyFreeDBPlugin 1.0
#
DISCID=a90cb60d
DTITLE=Steve Baker and Chris Jones - Everybody's Cryin Mercy
DYEAR=1998
DGENRE=Blues
TTITLE0=Middle Man
TTITLE1=Old Folks Boogie
TTITLE2=Everybody's Cryin Mercy
TTITLE3=Walking Blues
TTITLE4=L&N
TTITLE5=Willing
TTITLE6=Setting Me Up
TTITLE7=Lonesome Whistle
TTITLE8=Big Time
TTITLE9=Free Man
TTITLE10=White House Rock
TTITLE11=Mississippi Kid
TTITLE12=Diddy Wah Diddy
EXTD=YEAR: 1998 ID3G:   0
EXTT0=
EXTT1=
EXTT2=
EXTT3=
EXTT4=
EXTT5=
EXTT6=
EXTT7=
EXTT8=Cover=Free Man
EXTT9=Cover=Big Time
EXTT10=
EXTT11=
EXTT12=
PLAYORDER=
